<svg height="247.8" viewBox="0 0 125.4 247.8" width="125.4" xmlns="http://www.w3.org/2000/svg"><path d="m114.3 183.5-18.3-30.1c3.4-11.7 6.1-24.7 6.1-37.5 0-1.7-.1-3.4-.2-5-1.8-33.7-14.9-45.8-24.6-55.5-4.6-4.6-8.1-8.6-10.6-14.2a.3.3 0 0 1 -.1-.2 11 11 0 0 0 4.1-1.4 5.7 5.7 0 0 0 2.7-5.1l-.5-1.2q-1.2-1.2-6.9-1.5a20.4 20.4 0 0 1 .1-6.5c.1-1.1.1-1.1 1.8-1.3h.3a2.3 2.3 0 0 0 2-1.2c.6-1.3-.2-2.8-.7-3.7l-.2-.3-.2-.6c-2.6-6.4-4-11-4-13.5s-.8-4.1-1.3-4.5a1.7 1.7 0 0 0 -1.7 0c-.3.2-1.4.8-1.4 4.4 0 1.7-.7 5.4-4 13.6v.5l-.2.3a5.1 5.1 0 0 0 -1 2.6 2.3 2.3 0 0 0 .3 1.1 2.2 2.2 0 0 0 2 1.2h.2c1.6.2 1.6.2 1.8 1.3a30.2 30.2 0 0 1 .3 4 19.5 19.5 0 0 1 -.2 2.5q-5.7.3-6.9 1.5l-.6 1.2a5.7 5.7 0 0 0 2.8 5.1 10.4 10.4 0 0 0 4.1 1.5l-.2.3c-2.4 5.6-6.4 9.7-11.1 14.3-9.7 9.7-22.7 21.8-24.5 55.3-.1 1.6-.2 3.3-.2 5 0 12.8 2.7 25.8 6.1 37.5l-18.3 30.1-11.1 64.3h12.5l11.7-40.8 19.6-16.5.7.2 2.2.7c.3 2.1.7 4.2 1 5.5s.6 3.5 9.8 4.2v46.6h10.3v-46.5c9.7-.6 10.2-3.1 10.4-4.1s.6-3.5.9-5.6l2.2-.7h.4l19.5 16.2 11.7 40.8h12.5z" fill="#b4fff4"/></svg>