<svg height="183.9" viewBox="0 0 93.1 183.9" width="93.1" xmlns="http://www.w3.org/2000/svg"><path d="m84.8 136.2-13.5-22.4c2.5-8.6 4.5-18.3 4.5-27.8 0-1.2-.1-2.5-.1-3.7-1.4-25-11.1-34-18.3-41.2-3.4-3.4-6-6.3-7.9-10.5 0-.1-.1-.1-.1-.2a8.1 8.1 0 0 0 3.1-1 4.4 4.4 0 0 0 2-3.8l-.4-.9c-.6-.6-2.3-1-5.1-1.1a15.4 15.4 0 0 1 0-4.8c.1-.9.1-.9 1.4-1h.2a1.8 1.8 0 0 0 1.5-1c.5-.9-.2-2.1-.5-2.7l-.2-.2v-.5c-2-4.7-3-8.1-3-10s-.5-3-1-3.2a.9.9 0 0 0 -1.2 0c-.3.1-1 .6-1 3.2s-.6 4-3 10.1v.4l-.2.2a5.2 5.2 0 0 0 -.7 2 1.9 1.9 0 0 0 .2.7 1.8 1.8 0 0 0 1.5 1c1.3.1 1.3.1 1.4 1s.2 2.1.2 2.9a11.1 11.1 0 0 1 -.2 1.9c-2.8.1-4.5.5-5.1 1.1l-.4.9a4.4 4.4 0 0 0 2 3.8 8.1 8.1 0 0 0 3.1 1c-.1.1-.1.1-.1.2-1.8 4.2-4.8 7.2-8.3 10.7-7.2 7.2-16.8 16.1-18.2 41-.1 1.2-.1 2.5-.1 3.7 0 9.5 2 19.2 4.5 27.8l-13.6 22.4-8.2 47.7h9.3l8.7-30.3 14.5-12.2.6.2 1.6.6c.2 1.5.5 3.1.7 4s.5 2.6 7.3 3.1v34.6h7.7v-34.6c7.1-.4 7.5-2.3 7.6-3s.5-2.6.7-4.1l1.6-.6h.4l14.4 12.1 8.7 30.3h9.3z" fill="#b4fff4"/></svg>